<svg xmlns="http://www.w3.org/2000/svg" viewBox="0 0 512 512" role="img" aria-labelledby="title">
  <title>FinFlow app icon</title>
  <defs>
    <linearGradient id="finflowBg" x1="0%" x2="100%" y1="0%" y2="100%">
      <stop offset="0%" stop-color="#1f6a52" />
      <stop offset="100%" stop-color="#0f3f30" />
    </linearGradient>
    <linearGradient id="finflowAccent" x1="0%" x2="100%" y1="0%" y2="100%">
      <stop offset="0%" stop-color="#f1cf8b" />
      <stop offset="100%" stop-color="#e8a85b" />
    </linearGradient>
  </defs>
  <rect width="512" height="512" rx="128" fill="url(#finflowBg)" />
  <path
    d="M142 150h226c16 0 28 12 28 28s-12 28-28 28H203v76h142c16 0 28 12 28 28s-12 28-28 28H203v122c0 17-13 30-30 30s-31-13-31-30V180c0-17 13-30 31-30Z"
    fill="#fbf7ef"
  />
  <path
    d="M282 132c20 0 39 8 53 22s22 33 22 53c0 34-23 65-56 74l58 82c6 8 9 18 9 28 0 17-13 29-30 29-11 0-21-5-27-14l-81-116h60c22 0 39-17 39-39 0-21-17-38-39-38h-48v-61Z"
    fill="url(#finflowAccent)"
    opacity=".92"
  />
</svg>
